<svg width="37" height="43" viewBox="0 0 37 43" fill="none" xmlns="http://www.w3.org/2000/svg">
<mask id="mask0_18_15" style="mask-type:alpha" maskUnits="userSpaceOnUse" x="0" y="0" width="37" height="43">
<path d="M16.634 0.298689C16.069 0.333784 15.507 0.420113 14.9576 0.560751C14.4561 0.689092 13.9594 0.838696 13.4593 0.97421C8.80207 2.19204 5.24545 4.90412 2.71988 9.03794C0.43862 12.7708 -0.336192 16.8165 0.129559 21.1317C0.534107 24.8792 2.20512 28.0581 4.58238 30.8898C6.69654 33.4082 9.18808 35.4929 11.9199 37.3032C14.7535 39.181 17.7709 40.6501 21.0068 41.6676C21.8058 41.9187 22.6265 42.0708 23.4463 42.2284C23.6215 42.2619 23.8122 42.2942 23.9331 42.1136C24.0324 41.9655 23.9933 41.8126 23.9273 41.6717C23.8564 41.5208 23.7569 41.3853 23.651 41.2565C23.1075 40.5958 22.7106 39.8506 22.3764 39.0662C21.9828 38.1417 22.124 37.1221 23.4224 36.7819C26.8089 35.8943 29.6148 34.0104 31.9101 31.3762C35.213 27.5852 36.7565 23.1252 36.4949 18.0984C36.2176 12.7719 34.0737 8.28428 30.0725 4.77552C26.5791 1.71249 22.5194 0.256165 17.9911 0.256165C17.5431 0.256165 17.0911 0.27051 16.634 0.298689Z" fill="white"/>
</mask>
<g mask="url(#mask0_18_15)">
<path d="M37.7928 -1.02469L37.7921 17.7949L32.5608 17.755L32.5075 17.7548C31.2705 17.7548 30.0561 18.0924 28.9925 18.7328L27.7159 19.5021L26.3855 17.9902C26.2783 17.869 26.1584 17.7589 26.0281 17.6626C25.5357 17.298 24.9323 17.1492 24.3292 17.243C23.7258 17.3367 23.1945 17.6618 22.8334 18.1585L21.9989 19.3062L20.8729 15.1588C20.6753 14.43 20.0993 13.8715 19.3685 13.7017C18.8397 13.5797 18.2953 13.6714 17.8351 13.9622C17.3749 14.2527 17.055 14.7066 16.9333 15.24L15.9177 19.6953L15.2925 16.8656C15.1125 16.0528 14.5096 15.399 13.7195 15.16C13.1342 14.9825 12.5163 15.0455 11.9789 15.3376C11.4413 15.6293 11.0484 16.1145 10.8727 16.7045L10.1276 19.2065L9.63316 17.6979C9.32257 16.7519 8.45075 16.1166 7.46313 16.1166H6.09483C5.39366 16.1166 4.82506 16.6899 4.82506 17.3974C4.82506 18.105 5.39366 18.6783 6.09483 18.6783H7.27952L8.72756 23.0952C8.99167 23.8988 9.85537 24.3373 10.6533 24.0709C11.1244 23.9136 11.4908 23.533 11.6333 23.0539L13.0252 18.3804L14.4151 24.6693C14.5037 25.07 14.7414 25.412 15.0853 25.6323C15.3324 25.7908 15.6133 25.8723 15.8995 25.8723C16.0107 25.8723 16.1232 25.86 16.2344 25.8349C16.8028 25.7068 17.2553 25.2542 17.3874 24.6793L18.9563 17.7973L19.8276 21.0056C19.9706 21.5336 20.3094 21.9737 20.7807 22.2449C21.252 22.5157 21.7998 22.5851 22.3232 22.4412C22.7636 22.3197 23.1549 22.0479 23.4251 21.6765L24.6954 19.9292L25.8169 21.2031C26.6262 22.1215 27.9717 22.331 29.0177 21.7013L30.2943 20.9323C30.9734 20.5232 31.7375 20.3111 32.5413 20.3167L37.7921 20.3566L37.7928 43.5353H-1.26978V-1.02469H37.7928Z" fill="#00BF69"/>
</g>
</svg>
