<svg width="155" height="62" viewBox="0 0 155 62" fill="none" xmlns="http://www.w3.org/2000/svg">
<rect width="155" height="62" rx="5" fill="#00BF69"/>
<path d="M41.5459 30.3101C41.5322 27.979 42.5884 26.2222 44.7212 24.9268C43.5283 23.2178 41.7236 22.2778 39.3447 22.0967C37.0923 21.9189 34.6279 23.4092 33.7256 23.4092C32.772 23.4092 30.5913 22.1582 28.8755 22.1582C25.3345 22.2129 21.5713 24.9814 21.5713 30.6143C21.5713 32.2788 21.8755 33.998 22.4839 35.7686C23.2974 38.0996 26.23 43.811 29.2891 43.7188C30.8887 43.6812 32.02 42.584 34.1016 42.584C36.1216 42.584 37.1675 43.7188 38.9517 43.7188C42.0381 43.6743 44.6904 38.4824 45.4629 36.1445C41.3237 34.1929 41.5459 30.4297 41.5459 30.3101ZM41.1836 39.436C40.6948 40.1162 40.2026 40.6528 39.7515 40.998C39.3926 41.2715 39.1157 41.3877 38.9312 41.3945C38.6235 41.3911 38.3262 41.3159 37.7451 41.0938C37.7041 41.0767 37.6597 41.0596 37.6016 41.0391L37.4512 40.981C36.8564 40.752 36.501 40.6289 36.0464 40.5093C35.4106 40.3452 34.7783 40.2563 34.1016 40.2563C33.4111 40.2563 32.7617 40.3418 32.1157 40.5024C31.6406 40.6221 31.2407 40.7554 30.6562 40.9741C30.6323 40.9844 30.3794 41.0801 30.3076 41.1074C30.188 41.1519 30.0957 41.186 30.0103 41.2168C29.6548 41.3398 29.4292 41.3911 29.2275 41.3945C29.2036 41.3945 29.1831 41.3911 29.166 41.3877C29.1284 41.3809 29.0806 41.3672 29.0259 41.3433C28.8721 41.2817 28.6875 41.1689 28.479 41.0083C28.0005 40.6357 27.4741 40.0513 26.9375 39.3027C25.9976 37.9834 25.1089 36.2334 24.6816 35.0063C24.1553 33.4751 23.8955 32.0088 23.8955 30.6108C23.8955 28.5532 24.5039 26.9878 25.5498 25.9248C26.4487 25.0156 27.6587 24.5063 28.8926 24.479C29.0942 24.4824 29.3882 24.5303 29.7607 24.6328C30.0547 24.7114 30.376 24.8174 30.8101 24.9712C30.9399 25.019 31.3877 25.1797 31.4424 25.2002C31.7056 25.2959 31.9038 25.3643 32.0986 25.4258C32.7207 25.624 33.2026 25.7334 33.7256 25.7334C34.2554 25.7334 34.71 25.6206 35.356 25.3984C35.5986 25.3164 36.4805 24.9883 36.6377 24.9336C37.5127 24.6226 38.1587 24.4551 38.7158 24.4141C38.8799 24.4004 39.0269 24.4004 39.167 24.4106C39.9429 24.4722 40.606 24.626 41.1699 24.8823C39.8848 26.3657 39.2217 28.1807 39.2251 30.2964C39.2148 30.7988 39.2559 31.3799 39.3994 32.0669C39.6182 33.1094 40.0352 34.1416 40.6948 35.1089C41.1973 35.8438 41.8193 36.5068 42.5645 37.0845C42.1714 37.8945 41.6895 38.7319 41.1836 39.436ZM37.9536 19.8853C39.6865 17.8276 39.5293 15.9546 39.478 15.2812C37.9468 15.3701 36.1763 16.3237 35.168 17.4961C34.0571 18.7539 33.4043 20.3091 33.5444 22.0625C35.1987 22.189 36.7095 21.3379 37.9536 19.8853Z" fill="white"/>
<path d="M69 19.836V20.34C69 21.436 68.624 22.348 67.872 23.076C67.12 23.796 66.124 24.156 64.884 24.156C63.604 24.156 62.544 23.736 61.704 22.896C60.872 22.048 60.456 21.016 60.456 19.8C60.456 18.584 60.872 17.556 61.704 16.716C62.544 15.868 63.596 15.444 64.86 15.444C65.636 15.444 66.348 15.632 66.996 16.008C67.644 16.376 68.144 16.864 68.496 17.472L67.536 18.036C67.296 17.58 66.932 17.216 66.444 16.944C65.964 16.664 65.432 16.524 64.848 16.524C63.888 16.524 63.1 16.84 62.484 17.472C61.868 18.096 61.56 18.872 61.56 19.8C61.56 20.728 61.868 21.504 62.484 22.128C63.108 22.752 63.912 23.064 64.896 23.064C65.736 23.064 66.416 22.86 66.936 22.452C67.456 22.036 67.772 21.5 67.884 20.844H64.8V19.836H69ZM70.621 21.48C70.725 22.016 70.969 22.432 71.353 22.728C71.745 23.024 72.225 23.172 72.793 23.172C73.585 23.172 74.161 22.88 74.521 22.296L75.409 22.8C74.825 23.704 73.945 24.156 72.769 24.156C71.817 24.156 71.041 23.86 70.441 23.268C69.849 22.668 69.553 21.912 69.553 21C69.553 20.096 69.845 19.344 70.429 18.744C71.013 18.144 71.769 17.844 72.697 17.844C73.577 17.844 74.293 18.156 74.845 18.78C75.405 19.396 75.685 20.14 75.685 21.012C75.685 21.164 75.673 21.32 75.649 21.48H70.621ZM72.697 18.828C72.137 18.828 71.673 18.988 71.305 19.308C70.937 19.62 70.709 20.04 70.621 20.568H74.629C74.541 20 74.317 19.568 73.957 19.272C73.597 18.976 73.177 18.828 72.697 18.828ZM79.6133 19.008H78.0173V22.26C78.0173 22.556 78.0733 22.768 78.1853 22.896C78.3053 23.016 78.4853 23.08 78.7253 23.088C78.9653 23.088 79.2613 23.08 79.6133 23.064V24C78.7013 24.12 78.0333 24.048 77.6093 23.784C77.1853 23.512 76.9733 23.004 76.9733 22.26V19.008H75.7853V18H76.9733V16.632L78.0173 16.32V18H79.6133V19.008ZM83.6925 16.908C83.4925 16.908 83.3245 16.84 83.1885 16.704C83.0525 16.568 82.9845 16.404 82.9845 16.212C82.9845 16.02 83.0525 15.856 83.1885 15.72C83.3245 15.576 83.4925 15.504 83.6925 15.504C83.8845 15.504 84.0485 15.576 84.1845 15.72C84.3205 15.856 84.3885 16.02 84.3885 16.212C84.3885 16.404 84.3205 16.568 84.1845 16.704C84.0485 16.84 83.8845 16.908 83.6925 16.908ZM83.1645 24V18H84.2085V24H83.1645ZM88.7052 19.008H87.1092V22.26C87.1092 22.556 87.1652 22.768 87.2772 22.896C87.3972 23.016 87.5772 23.08 87.8172 23.088C88.0572 23.088 88.3532 23.08 88.7052 23.064V24C87.7932 24.12 87.1252 24.048 86.7012 23.784C86.2772 23.512 86.0652 23.004 86.0652 22.26V19.008H84.8772V18H86.0652V16.632L87.1092 16.32V18H88.7052V19.008ZM97.3204 23.244C96.7044 23.852 95.9564 24.156 95.0764 24.156C94.1964 24.156 93.4484 23.852 92.8324 23.244C92.2244 22.636 91.9204 21.888 91.9204 21C91.9204 20.112 92.2244 19.364 92.8324 18.756C93.4484 18.148 94.1964 17.844 95.0764 17.844C95.9564 17.844 96.7044 18.148 97.3204 18.756C97.9364 19.364 98.2444 20.112 98.2444 21C98.2444 21.888 97.9364 22.636 97.3204 23.244ZM95.0764 23.136C95.6764 23.136 96.1804 22.932 96.5884 22.524C96.9964 22.116 97.2004 21.608 97.2004 21C97.2004 20.392 96.9964 19.884 96.5884 19.476C96.1804 19.068 95.6764 18.864 95.0764 18.864C94.4844 18.864 93.9844 19.068 93.5764 19.476C93.1684 19.884 92.9644 20.392 92.9644 21C92.9644 21.608 93.1684 22.116 93.5764 22.524C93.9844 22.932 94.4844 23.136 95.0764 23.136ZM102.103 17.844C102.807 17.844 103.371 18.068 103.795 18.516C104.219 18.956 104.431 19.556 104.431 20.316V24H103.387V20.376C103.387 19.888 103.255 19.512 102.991 19.248C102.727 18.976 102.363 18.84 101.899 18.84C101.379 18.84 100.959 19.004 100.639 19.332C100.319 19.652 100.159 20.148 100.159 20.82V24H99.1151V18H100.159V18.864C100.583 18.184 101.231 17.844 102.103 17.844Z" fill="white"/>
<path d="M68.468 43L67.586 40.462H62.222L61.34 43H59.09L63.662 30.4H66.146L70.7 43H68.468ZM62.906 38.518H66.902L64.904 32.83L62.906 38.518ZM76.4829 33.766C77.7189 33.766 78.7749 34.228 79.6509 35.152C80.5269 36.064 80.9649 37.18 80.9649 38.5C80.9649 39.832 80.5269 40.954 79.6509 41.866C78.7749 42.778 77.7189 43.234 76.4829 43.234C75.1149 43.234 74.0649 42.73 73.3329 41.722V46.6H71.3889V34H73.3329V35.296C74.0649 34.276 75.1149 33.766 76.4829 33.766ZM74.1429 40.57C74.6829 41.11 75.3609 41.38 76.1769 41.38C76.9929 41.38 77.6709 41.11 78.2109 40.57C78.7509 40.018 79.0209 39.328 79.0209 38.5C79.0209 37.672 78.7509 36.988 78.2109 36.448C77.6709 35.896 76.9929 35.62 76.1769 35.62C75.3609 35.62 74.6829 35.896 74.1429 36.448C73.6029 36.988 73.3329 37.672 73.3329 38.5C73.3329 39.328 73.6029 40.018 74.1429 40.57ZM87.2808 33.766C88.5168 33.766 89.5728 34.228 90.4488 35.152C91.3248 36.064 91.7628 37.18 91.7628 38.5C91.7628 39.832 91.3248 40.954 90.4488 41.866C89.5728 42.778 88.5168 43.234 87.2808 43.234C85.9128 43.234 84.8628 42.73 84.1308 41.722V46.6H82.1868V34H84.1308V35.296C84.8628 34.276 85.9128 33.766 87.2808 33.766ZM84.9408 40.57C85.4808 41.11 86.1588 41.38 86.9748 41.38C87.7908 41.38 88.4688 41.11 89.0088 40.57C89.5488 40.018 89.8188 39.328 89.8188 38.5C89.8188 37.672 89.5488 36.988 89.0088 36.448C88.4688 35.896 87.7908 35.62 86.9748 35.62C86.1588 35.62 85.4808 35.896 84.9408 36.448C84.4008 36.988 84.1308 37.672 84.1308 38.5C84.1308 39.328 84.4008 40.018 84.9408 40.57ZM98.6907 36.484C98.6907 36.784 98.8527 37.024 99.1767 37.204C99.5127 37.372 99.9147 37.522 100.383 37.654C100.863 37.774 101.343 37.918 101.823 38.086C102.303 38.254 102.705 38.542 103.029 38.95C103.365 39.346 103.533 39.85 103.533 40.462C103.533 41.326 103.197 42.004 102.525 42.496C101.865 42.988 101.031 43.234 100.023 43.234C99.1347 43.234 98.3727 43.048 97.7367 42.676C97.1007 42.304 96.6387 41.788 96.3507 41.128L98.0247 40.156C98.3367 41.02 99.0027 41.452 100.023 41.452C101.043 41.452 101.553 41.116 101.553 40.444C101.553 40.156 101.385 39.922 101.049 39.742C100.725 39.562 100.323 39.412 99.8427 39.292C99.3747 39.16 98.9007 39.01 98.4207 38.842C97.9407 38.674 97.5327 38.398 97.1967 38.014C96.8727 37.618 96.7107 37.12 96.7107 36.52C96.7107 35.692 97.0227 35.026 97.6467 34.522C98.2827 34.018 99.0687 33.766 100.005 33.766C100.749 33.766 101.409 33.934 101.985 34.27C102.573 34.594 103.023 35.05 103.335 35.638L101.697 36.556C101.385 35.872 100.821 35.53 100.005 35.53C99.6327 35.53 99.3207 35.614 99.0687 35.782C98.8167 35.938 98.6907 36.172 98.6907 36.484ZM109.372 35.872H107.14V40.192C107.14 40.564 107.224 40.834 107.392 41.002C107.56 41.158 107.806 41.248 108.13 41.272C108.466 41.284 108.88 41.278 109.372 41.254V43C107.884 43.18 106.816 43.054 106.168 42.622C105.52 42.178 105.196 41.368 105.196 40.192V35.872H103.54V34H105.196V32.056L107.14 31.48V34H109.372V35.872ZM114.474 43.234C113.154 43.234 112.032 42.778 111.108 41.866C110.184 40.954 109.722 39.832 109.722 38.5C109.722 37.168 110.184 36.046 111.108 35.134C112.032 34.222 113.154 33.766 114.474 33.766C115.806 33.766 116.928 34.222 117.84 35.134C118.764 36.046 119.226 37.168 119.226 38.5C119.226 39.832 118.764 40.954 117.84 41.866C116.928 42.778 115.806 43.234 114.474 43.234ZM112.476 40.534C113.016 41.074 113.682 41.344 114.474 41.344C115.266 41.344 115.932 41.074 116.472 40.534C117.012 39.994 117.282 39.316 117.282 38.5C117.282 37.684 117.012 37.006 116.472 36.466C115.932 35.926 115.266 35.656 114.474 35.656C113.682 35.656 113.016 35.926 112.476 36.466C111.936 37.006 111.666 37.684 111.666 38.5C111.666 39.316 111.936 39.994 112.476 40.534ZM122.388 35.512C122.88 34.396 123.804 33.838 125.16 33.838V35.944C124.416 35.896 123.768 36.076 123.216 36.484C122.664 36.88 122.388 37.54 122.388 38.464V43H120.444V34H122.388V35.512ZM127.164 39.328C127.308 40.012 127.638 40.54 128.154 40.912C128.67 41.272 129.3 41.452 130.044 41.452C131.076 41.452 131.85 41.08 132.366 40.336L133.968 41.272C133.08 42.58 131.766 43.234 130.026 43.234C128.562 43.234 127.38 42.79 126.48 41.902C125.58 41.002 125.13 39.868 125.13 38.5C125.13 37.156 125.574 36.034 126.462 35.134C127.35 34.222 128.49 33.766 129.882 33.766C131.202 33.766 132.282 34.228 133.122 35.152C133.974 36.076 134.4 37.198 134.4 38.518C134.4 38.722 134.376 38.992 134.328 39.328H127.164ZM127.146 37.744H132.438C132.306 37.012 132 36.46 131.52 36.088C131.052 35.716 130.5 35.53 129.864 35.53C129.144 35.53 128.544 35.728 128.064 36.124C127.584 36.52 127.278 37.06 127.146 37.744Z" fill="white"/>
</svg>
